<svg width="39" height="58" viewBox="0 0 39 58" fill="none" xmlns="http://www.w3.org/2000/svg">
<path d="M8.72101 27.1493L17.5595 34.7938C17.7204 34.933 17.8328 35.1191 17.8805 35.3255C17.9282 35.5319 17.9088 35.748 17.825 35.9428L9.76314 54.6879C9.6736 54.8963 9.65785 55.1286 9.71844 55.347C9.77904 55.5654 9.91242 55.757 10.0969 55.8907C10.2813 56.0243 10.5059 56.0921 10.7342 56.0831C10.9625 56.074 11.1809 55.9886 11.354 55.8407L34.9932 35.6244C35.0981 35.5347 35.1833 35.4245 35.2435 35.3008C35.3037 35.1771 35.3376 35.0424 35.3432 34.9051C35.3487 34.7679 35.3258 34.631 35.2758 34.5028C35.2257 34.3747 35.1497 34.2582 35.0523 34.1604L25.3437 24.4104C25.2057 24.2718 25.1114 24.0963 25.0724 23.9055C25.0333 23.7146 25.0511 23.5166 25.1237 23.3356L32.4532 5.04727C32.5391 4.83318 32.548 4.59629 32.4785 4.37644C32.4089 4.1566 32.2652 3.9672 32.0713 3.8401C31.8775 3.713 31.6454 3.65595 31.4141 3.67854C31.1829 3.70113 30.9665 3.80199 30.8014 3.96416L8.67448 25.6808C8.57564 25.7778 8.49804 25.894 8.44651 26.022C8.39498 26.1501 8.37064 26.2873 8.37501 26.4251C8.37938 26.5629 8.41236 26.6983 8.47189 26.8229C8.53142 26.9475 8.61623 27.0586 8.72101 27.1493Z" fill="#F9A242"/>
<path d="M35.0522 34.1604L25.344 24.4104C25.2059 24.2718 25.1115 24.0963 25.0723 23.9054C25.0332 23.7145 25.051 23.5164 25.1235 23.3353L32.4533 5.04727C32.5392 4.83318 32.5481 4.59629 32.4786 4.37644C32.409 4.1566 32.2652 3.9672 32.0714 3.8401C31.8775 3.713 31.6455 3.65595 31.4142 3.67854C31.1829 3.70113 30.9666 3.80199 30.8015 3.96416L21.7341 12.8635L17.5371 23.3353C17.4645 23.5164 17.4467 23.7145 17.4858 23.9054C17.5249 24.0963 17.6192 24.2718 17.7573 24.4104L27.466 34.1604C27.5633 34.2582 27.6394 34.3748 27.6895 34.5029C27.7395 34.631 27.7625 34.768 27.7569 34.9053C27.7514 35.0426 27.7174 35.1773 27.6572 35.301C27.597 35.4248 27.5117 35.5349 27.4068 35.6246L12.467 48.4011L9.76296 54.6879C9.67331 54.8963 9.65749 55.1287 9.71808 55.3472C9.77866 55.5657 9.91208 55.7574 10.0966 55.891C10.2811 56.0247 10.5058 56.0925 10.7342 56.0834C10.9625 56.0743 11.181 55.9887 11.3541 55.8407L34.9932 35.6244C35.0982 35.5347 35.1834 35.4245 35.2436 35.3008C35.3038 35.1771 35.3377 35.0424 35.3433 34.9051C35.3488 34.7679 35.3259 34.631 35.2758 34.5028C35.2258 34.3747 35.1497 34.2582 35.0524 34.1604H35.0522Z" fill="#F48A31"/>
</svg>
