<svg width="122" height="40" viewBox="0 0 122 40" fill="none" xmlns="http://www.w3.org/2000/svg">
<circle cx="102" cy="20" r="20" fill="#BC4772"/>
<path fill-rule="evenodd" clip-rule="evenodd" d="M111.25 24H113V29.25C113 30.2125 112.212 31 111.25 31H93.75C92.7875 31 92 30.2125 92 29.25V11.75C92 10.7875 92.7875 10 93.75 10H99V11.75H93.75V29.25H111.25V24ZM102.5 10L106.438 13.9375L100.75 19.625L103.375 22.25L109.062 16.5625L113 20.5V10H102.5Z" fill="white"/>
<path d="M3.30859 15.3926L5.78125 22.7227L8.22461 15.3926H9.53125L6.39062 24H5.1543L2.01953 15.3926H3.30859ZM10.2812 17.7539H11.3535V24H10.2812V17.7539ZM10.2812 15.3926H11.3535V16.5879H10.2812V15.3926ZM15.5664 17.584C16.0117 17.584 16.4434 17.6895 16.8613 17.9004C17.2793 18.1074 17.5977 18.377 17.8164 18.709C18.0273 19.0254 18.168 19.3945 18.2383 19.8164C18.3008 20.1055 18.332 20.5664 18.332 21.1992H13.7324C13.752 21.8359 13.9023 22.3477 14.1836 22.7344C14.4648 23.1172 14.9004 23.3086 15.4902 23.3086C16.041 23.3086 16.4805 23.127 16.8086 22.7637C16.9961 22.5527 17.1289 22.3086 17.207 22.0312H18.2441C18.2168 22.2617 18.125 22.5195 17.9688 22.8047C17.8164 23.0859 17.6445 23.3164 17.4531 23.4961C17.1328 23.8086 16.7363 24.0195 16.2637 24.1289C16.0098 24.1914 15.7227 24.2227 15.4023 24.2227C14.6211 24.2227 13.959 23.9395 13.416 23.373C12.873 22.8027 12.6016 22.0059 12.6016 20.9824C12.6016 19.9746 12.875 19.1562 13.4219 18.5273C13.9688 17.8984 14.6836 17.584 15.5664 17.584ZM17.248 20.3613C17.2051 19.9043 17.1055 19.5391 16.9492 19.2656C16.6602 18.7578 16.1777 18.5039 15.502 18.5039C15.0176 18.5039 14.6113 18.6797 14.2832 19.0312C13.9551 19.3789 13.7812 19.8223 13.7617 20.3613H17.248ZM20.1191 17.7246L21.3262 22.6699L22.5508 17.7246H23.7344L24.9648 22.6406L26.248 17.7246H27.3027L25.4805 24H24.3848L23.1074 19.1426L21.8711 24H20.7754L18.9648 17.7246H20.1191ZM31.6445 17.7539H32.7168V24H31.6445V17.7539ZM31.6445 15.3926H32.7168V16.5879H31.6445V15.3926ZM34.3164 17.7246H35.3184V18.6152C35.6152 18.248 35.9297 17.9844 36.2617 17.8242C36.5938 17.6641 36.9629 17.584 37.3691 17.584C38.2598 17.584 38.8613 17.8945 39.1738 18.5156C39.3457 18.8555 39.4316 19.3418 39.4316 19.9746V24H38.3594V20.0449C38.3594 19.6621 38.3027 19.3535 38.1895 19.1191C38.002 18.7285 37.6621 18.5332 37.1699 18.5332C36.9199 18.5332 36.7148 18.5586 36.5547 18.6094C36.2656 18.6953 36.0117 18.8672 35.793 19.125C35.6172 19.332 35.502 19.5469 35.4473 19.7695C35.3965 19.9883 35.3711 20.3027 35.3711 20.7129V24H34.3164V17.7246ZM45.0039 20.9355C45.0039 21.6074 45.1465 22.1699 45.4316 22.623C45.7168 23.0762 46.1738 23.3027 46.8027 23.3027C47.291 23.3027 47.6914 23.0938 48.0039 22.6758C48.3203 22.2539 48.4785 21.6504 48.4785 20.8652C48.4785 20.0723 48.3164 19.4863 47.9922 19.1074C47.668 18.7246 47.2676 18.5332 46.791 18.5332C46.2598 18.5332 45.8281 18.7363 45.4961 19.1426C45.168 19.5488 45.0039 20.1465 45.0039 20.9355ZM46.5918 17.6133C47.0723 17.6133 47.4746 17.7148 47.7988 17.918C47.9863 18.0352 48.1992 18.2402 48.4375 18.5332V15.3633H49.4512V24H48.502V23.127C48.2559 23.5137 47.9648 23.793 47.6289 23.9648C47.293 24.1367 46.9082 24.2227 46.4746 24.2227C45.7754 24.2227 45.1699 23.9297 44.6582 23.3438C44.1465 22.7539 43.8906 21.9707 43.8906 20.9941C43.8906 20.0801 44.123 19.2891 44.5879 18.6211C45.0566 17.9492 45.7246 17.6133 46.5918 17.6133ZM53.6289 17.584C54.0742 17.584 54.5059 17.6895 54.9238 17.9004C55.3418 18.1074 55.6602 18.377 55.8789 18.709C56.0898 19.0254 56.2305 19.3945 56.3008 19.8164C56.3633 20.1055 56.3945 20.5664 56.3945 21.1992H51.7949C51.8145 21.8359 51.9648 22.3477 52.2461 22.7344C52.5273 23.1172 52.9629 23.3086 53.5527 23.3086C54.1035 23.3086 54.543 23.127 54.8711 22.7637C55.0586 22.5527 55.1914 22.3086 55.2695 22.0312H56.3066C56.2793 22.2617 56.1875 22.5195 56.0312 22.8047C55.8789 23.0859 55.707 23.3164 55.5156 23.4961C55.1953 23.8086 54.7988 24.0195 54.3262 24.1289C54.0723 24.1914 53.7852 24.2227 53.4648 24.2227C52.6836 24.2227 52.0215 23.9395 51.4785 23.373C50.9355 22.8027 50.6641 22.0059 50.6641 20.9824C50.6641 19.9746 50.9375 19.1562 51.4844 18.5273C52.0312 17.8984 52.7461 17.584 53.6289 17.584ZM55.3105 20.3613C55.2676 19.9043 55.168 19.5391 55.0117 19.2656C54.7227 18.7578 54.2402 18.5039 53.5645 18.5039C53.0801 18.5039 52.6738 18.6797 52.3457 19.0312C52.0176 19.3789 51.8438 19.8223 51.8242 20.3613H55.3105ZM57.9062 15.9727H58.9727V17.7246H59.9746V18.5859H58.9727V22.6816C58.9727 22.9004 59.0469 23.0469 59.1953 23.1211C59.2773 23.1641 59.4141 23.1855 59.6055 23.1855C59.6562 23.1855 59.7109 23.1855 59.7695 23.1855C59.8281 23.1816 59.8965 23.1758 59.9746 23.168V24C59.8535 24.0352 59.7266 24.0605 59.5938 24.0762C59.4648 24.0918 59.3242 24.0996 59.1719 24.0996C58.6797 24.0996 58.3457 23.9746 58.1699 23.7246C57.9941 23.4707 57.9062 23.1426 57.9062 22.7402V18.5859H57.0566V17.7246H57.9062V15.9727ZM61.8438 22.3301C61.8438 22.6348 61.9551 22.875 62.1777 23.0508C62.4004 23.2266 62.6641 23.3145 62.9688 23.3145C63.3398 23.3145 63.6992 23.2285 64.0469 23.0566C64.6328 22.7715 64.9258 22.3047 64.9258 21.6562V20.8066C64.7969 20.8887 64.6309 20.957 64.4277 21.0117C64.2246 21.0664 64.0254 21.1055 63.8301 21.1289L63.1914 21.2109C62.8086 21.2617 62.5215 21.3418 62.3301 21.4512C62.0059 21.6348 61.8438 21.9277 61.8438 22.3301ZM64.3984 20.1973C64.6406 20.166 64.8027 20.0645 64.8848 19.8926C64.9316 19.7988 64.9551 19.6641 64.9551 19.4883C64.9551 19.1289 64.8262 18.8691 64.5684 18.709C64.3145 18.5449 63.9492 18.4629 63.4727 18.4629C62.9219 18.4629 62.5312 18.6113 62.3008 18.9082C62.1719 19.0723 62.0879 19.3164 62.0488 19.6406H61.0645C61.084 18.8672 61.334 18.3301 61.8145 18.0293C62.2988 17.7246 62.8594 17.5723 63.4961 17.5723C64.2344 17.5723 64.834 17.7129 65.2949 17.9941C65.752 18.2754 65.9805 18.7129 65.9805 19.3066V22.9219C65.9805 23.0312 66.002 23.1191 66.0449 23.1855C66.0918 23.252 66.1875 23.2852 66.332 23.2852C66.3789 23.2852 66.4316 23.2832 66.4902 23.2793C66.5488 23.2715 66.6113 23.2617 66.6777 23.25V24.0293C66.5137 24.0762 66.3887 24.1055 66.3027 24.1172C66.2168 24.1289 66.0996 24.1348 65.9512 24.1348C65.5879 24.1348 65.3242 24.0059 65.1602 23.748C65.0742 23.6113 65.0137 23.418 64.9785 23.168C64.7637 23.4492 64.4551 23.6934 64.0527 23.9004C63.6504 24.1074 63.207 24.2109 62.7227 24.2109C62.1406 24.2109 61.6641 24.0352 61.293 23.6836C60.9258 23.3281 60.7422 22.8848 60.7422 22.3535C60.7422 21.7715 60.9238 21.3203 61.2871 21C61.6504 20.6797 62.127 20.4824 62.7168 20.4082L64.3984 20.1973ZM67.7148 17.7539H68.7871V24H67.7148V17.7539ZM67.7148 15.3926H68.7871V16.5879H67.7148V15.3926ZM70.416 15.3926H71.4707V24H70.416V15.3926Z" fill="#999999"/>
</svg>
