<svg width="115" height="115" viewBox="0 0 115 115" fill="none" xmlns="http://www.w3.org/2000/svg">
<path d="M90.7242 38.9023L85.3336 30.8883H29.6305L24.2398 38.9023C23.06 40.6809 22.4347 42.7696 22.443 44.9039V96.4922C22.443 99.3515 23.5788 102.094 25.6007 104.116C27.6226 106.138 30.3648 107.273 33.2242 107.273H81.7398C84.5992 107.273 87.3414 106.138 89.3633 104.116C91.3852 102.094 92.5211 99.3515 92.5211 96.4922V44.9219C92.5329 42.7815 91.9074 40.686 90.7242 38.9023Z" fill="#CED8DA" stroke="#5F363A" stroke-width="3" stroke-linecap="round" stroke-linejoin="round"/>
<path d="M29.5943 30.8883L85.4053 30.8883V20.8258L29.5943 20.8258V30.8883Z" fill="#CED8DA" stroke="#5F363A" stroke-width="3" stroke-linecap="round" stroke-linejoin="round"/>
<path d="M28.75 20.8078L86.25 20.8078C88.2348 20.8078 89.8438 19.1988 89.8438 17.2141V11.3023C89.8438 9.31756 88.2348 7.70858 86.25 7.70858L28.75 7.70858C26.7652 7.70858 25.1562 9.31756 25.1562 11.3023V17.2141C25.1562 19.1988 26.7652 20.8078 28.75 20.8078Z" fill="#FFFAF0" stroke="#5F363A" stroke-width="3" stroke-linecap="round" stroke-linejoin="round"/>
<path d="M22.4609 55.4875H92.5391V96.4922C92.5391 99.3515 91.4032 102.094 89.3813 104.116C87.3594 106.138 84.6172 107.273 81.7578 107.273H33.2422C30.3828 107.273 27.6406 106.138 25.6187 104.116C23.5968 102.094 22.4609 99.3515 22.4609 96.4922V55.4875Z" fill="#D86363" stroke="#5F363A" stroke-width="3" stroke-linecap="round" stroke-linejoin="round"/>
<path d="M59.2969 92.5391H22.4609L22.4609 45.6227L59.2969 45.6227C60.25 45.6227 61.1641 46.0013 61.838 46.6752C62.512 47.3492 62.8906 48.2633 62.8906 49.2164L62.8906 88.9453C62.8906 89.8984 62.512 90.8125 61.838 91.4865C61.1641 92.1604 60.25 92.5391 59.2969 92.5391Z" fill="#BC4772" stroke="#5F363A" stroke-width="3" stroke-linecap="round" stroke-linejoin="round"/>
</svg>
