<svg width="51" height="51" viewBox="0 0 51 51" fill="none" xmlns="http://www.w3.org/2000/svg">
<g clip-path="url(#clip0_251_564)">
<path d="M31.2214 0.6375V4.15172H19.7783V0.6375C19.7783 0.286875 20.0652 0 20.4158 0H30.576C30.9425 0 31.2214 0.286875 31.2214 0.6375Z" fill="#E1E3E8"/>
<path d="M38.9513 7.36314V46.6013C38.9513 49.0317 36.983 51 34.5526 51H16.4555C14.0251 51 12.0488 49.0317 12.0488 46.6013V7.36314C12.0488 4.93267 14.0251 2.95642 16.4555 2.95642H34.5605C36.983 2.95642 38.9513 4.93267 38.9513 7.36314Z" fill="#3A556A"/>
<path d="M25.5001 2.95642V15.4275H12.0488V7.36314C12.0488 4.93267 14.0251 2.95642 16.4555 2.95642H25.5001Z" fill="#4BC8F1"/>
<path d="M38.9513 7.36314V15.4275H25.5V2.95642H34.5525C36.983 2.95642 38.9513 4.93267 38.9513 7.36314Z" fill="#3EBEDB"/>
<path d="M38.9513 15.4275V46.6012C38.9513 49.0317 36.983 51 34.5525 51H25.5V15.4275H38.9513Z" fill="#334D5E"/>
<path d="M27.6835 19.8262L19.6829 32.1858H25.253L21.7388 42.7922L31.3252 29.2533H25.5L27.6835 19.8262Z" fill="#E1E3E8"/>
</g>
<defs>
<clipPath id="clip0_251_564">
<rect width="51" height="51" fill="white"/>
</clipPath>
</defs>
</svg>
