<svg width="65" height="65" viewBox="0 0 65 65" fill="none" xmlns="http://www.w3.org/2000/svg">
<path d="M31.1221 51.4583C29.3448 51.4669 27.6283 50.8116 26.3089 49.6208C24.9895 48.43 24.1621 46.7895 23.9889 45.0206L22.1136 26.2767C22.0642 25.7818 21.8417 25.3203 21.4853 24.9734C21.1289 24.6265 20.6616 24.4166 20.1655 24.3805C19.6695 24.3445 19.1767 24.4847 18.7739 24.7764C18.3712 25.0681 18.0843 25.4926 17.9638 25.9752L16.9376 30.08C16.5733 31.5456 15.7286 32.8469 14.5383 33.7764C13.348 34.7059 11.8808 35.21 10.3706 35.2083H8.12508C7.40679 35.2083 6.71791 34.923 6.21 34.4151C5.70209 33.9072 5.41675 33.2183 5.41675 32.5C5.41675 31.7817 5.70209 31.0928 6.21 30.5849C6.71791 30.077 7.40679 29.7917 8.12508 29.7917H10.3706C10.6728 29.7922 10.9666 29.6913 11.2048 29.5053C11.4431 29.3193 11.6122 29.0588 11.685 28.7655L12.7113 24.6607C13.141 22.9409 14.1639 21.428 15.5998 20.3885C17.0356 19.3489 18.7923 18.8495 20.5603 18.9782C22.3283 19.1068 23.9941 19.8553 25.2643 21.0917C26.5346 22.3282 27.3277 23.9732 27.5039 25.7371L29.3792 44.4812C29.4242 44.9117 29.628 45.31 29.9507 45.5985C30.2735 45.8869 30.692 46.0449 31.1249 46.0416C31.5577 46.0383 31.9738 45.874 32.2921 45.5806C32.6104 45.2873 32.808 44.8859 32.8466 44.4548L34.8672 20.2411C35.0148 18.4663 35.8057 16.8066 37.0912 15.5741C38.3766 14.3415 40.068 13.6209 41.8474 13.5478C43.6268 13.4747 45.3716 14.0541 46.7538 15.1771C48.136 16.3001 49.0603 17.8894 49.3531 19.646L50.8553 28.6623C50.9077 28.9785 51.0708 29.2657 51.3155 29.4726C51.5602 29.6795 51.8705 29.7926 52.191 29.7917H56.8751C57.5934 29.7917 58.2823 30.077 58.7902 30.585C59.2981 31.0929 59.5834 31.7817 59.5834 32.5C59.5834 33.2183 59.2981 33.9072 58.7902 34.4151C58.2823 34.923 57.5934 35.2084 56.8751 35.2084H52.191C50.5879 35.2118 49.0358 34.6448 47.8123 33.6089C46.5888 32.5729 45.7737 31.1355 45.5128 29.5537L44.0105 20.5373C43.9347 20.0829 43.6955 19.6719 43.338 19.3814C42.9805 19.091 42.5292 18.9411 42.0689 18.9599C41.6086 18.9787 41.1711 19.165 40.8385 19.4837C40.5059 19.8025 40.3012 20.2317 40.2627 20.6907L38.2447 44.9017C38.0879 46.6856 37.2707 48.3466 35.9532 49.5594C34.6357 50.7722 32.9128 51.4494 31.1221 51.4583Z" fill="#0C5DAD"/>
</svg>
