<svg width="86" height="86" viewBox="0 0 86 86" fill="none" xmlns="http://www.w3.org/2000/svg">
<path d="M67.8458 29.0922L63.8145 23.0991H22.1583L18.127 29.0922C17.2447 30.4222 16.7771 31.9842 16.7833 33.5803V72.1594C16.7833 74.2977 17.6327 76.3484 19.1447 77.8604C20.6567 79.3724 22.7075 80.2219 24.8458 80.2219H61.127C63.2653 80.2219 65.316 79.3724 66.8281 77.8604C68.3401 76.3484 69.1895 74.2977 69.1895 72.1594V33.5937C69.1984 31.9931 68.7306 30.426 67.8458 29.0922Z" fill="#CED8DA" stroke="#5F363A" stroke-width="3" stroke-linecap="round" stroke-linejoin="round"/>
<path d="M22.1318 23.0991L63.8687 23.0991V15.5741L22.1318 15.5741V23.0991Z" fill="#CED8DA" stroke="#5F363A" stroke-width="3" stroke-linecap="round" stroke-linejoin="round"/>
<path d="M21.5 15.5606L64.5 15.5606C65.9843 15.5606 67.1875 14.3574 67.1875 12.8731V8.45217C67.1875 6.96791 65.9843 5.76467 64.5 5.76467L21.5 5.76467C20.0157 5.76467 18.8125 6.96791 18.8125 8.45217V12.8731C18.8125 14.3574 20.0157 15.5606 21.5 15.5606Z" fill="#FFFAF0" stroke="#5F363A" stroke-width="3" stroke-linecap="round" stroke-linejoin="round"/>
<path d="M16.7969 41.495H69.2031V72.1594C69.2031 74.2977 68.3537 76.3484 66.8417 77.8604C65.3297 79.3724 63.2789 80.2219 61.1406 80.2219H24.8594C22.7211 80.2219 20.6703 79.3724 19.1583 77.8604C17.6463 76.3484 16.7969 74.2977 16.7969 72.1594V41.495Z" fill="#FFCC5C" stroke="#5F363A" stroke-width="3" stroke-linecap="round" stroke-linejoin="round"/>
<path d="M44.3438 69.2031H16.7969L16.7969 34.1178L44.3438 34.1178C45.0565 34.1178 45.7401 34.401 46.2441 34.905C46.7481 35.409 47.0313 36.0925 47.0313 36.8053L47.0312 66.5156C47.0312 67.2284 46.7481 67.912 46.2441 68.416C45.7401 68.92 45.0565 69.2031 44.3438 69.2031Z" fill="#BC4772" stroke="#5F363A" stroke-width="3" stroke-linecap="round" stroke-linejoin="round"/>
</svg>
